<?xml version="1.0" encoding="utf-8"?>
<!-- Generator: Adobe Illustrator 21.1.0, SVG Export Plug-In . SVG Version: 6.00 Build 0)  -->
<svg version="1.1" id="图层_1" xmlns="http://www.w3.org/2000/svg" xmlns:xlink="http://www.w3.org/1999/xlink" x="0px" y="0px"
	 viewBox="0 0 32 32" style="enable-background:new 0 0 32 32;" xml:space="preserve">
<style type="text/css">
	.st0{fill:#66BC95;}
</style>
<title>画板 1</title>
<g id="lgo">
	<path id="top" class="st0" d="M11.7,9c2.7,0,5.2,1.3,6.6,3.6h14.1C30,4.1,21.2-0.9,12.7,1.5C7.3,3.1,3.1,7.2,1.6,12.6h3.5
		C6.6,10.4,9,9,11.7,9z M25.6,7.2c1,0.1,1.8,0.9,1.9,1.9c0,1-0.8,1.9-1.9,1.9c-1,0-1.9-0.8-1.9-1.9c0,0,0,0,0,0
		C23.7,8.1,24.6,7.2,25.6,7.2z"/>
	<path id="bottom" class="st0" d="M32.7,13.8H19c0.4,1,0.6,2,0.6,3.1c0,4.4-3.5,7.9-7.9,8S3.8,21.4,3.8,17c0-1.1,0.2-2.1,0.6-3.1
		H1.3C1.1,14.9,1,16,1,17c0,8.8,7.2,16,16,16s16-7.2,16-16C33,15.9,32.9,14.9,32.7,13.8z M23.4,28.7c-2.1,0-3.8-1.7-3.8-3.8
		s1.7-3.8,3.8-3.8s3.8,1.7,3.8,3.8c0,0,0,0,0,0C27.2,27,25.5,28.7,23.4,28.7z"/>
</g>
</svg>
